<svg xmlns="http://www.w3.org/2000/svg" viewBox="0 0 1024 1024">
  <style>
    .bg { fill: none }
    .mark { fill: #a6e3a1 }
    @media (prefers-color-scheme: light) {
      .mark { fill: #38bb1b }
    }
  </style>
  <rect class="bg" width="1024" height="1024"/>
  <g transform="translate(0,1024) scale(0.1,-0.1)" class="mark" stroke="none">
    <path d="M1907 8140 c-140 -18 -217 -83 -430 -368 -811 -1088 -1068 -2529 -682 -3836 149 -507 359 -927 675 -1351 143 -192 208 -242 349 -266 166 -30 344 68 419 228 24 51 27 70 27 153 -1 124 -22 175 -120 300 -688 866 -917 2069 -603 3164 131 459 345 867 657 1258 133 167 146 197 146 338 0 91 -3 111 -24 150 -93 176 -230 252 -414 230z"/>
    <path d="M8170 8131 c-171 -55 -280 -204 -280 -381 0 -124 20 -165 171 -351 1016 -1253 1035 -3144 44 -4389 -114 -144 -152 -257 -126 -378 55 -258 329 -391 568 -276 131 63 415 462 617 864 743 1484 573 3276 -437 4604 -199 261 -266 309 -437 313 -52 1 -106 -1 -120 -6z"/>
    <path d="M2905 7057 c-160 -54 -313 -243 -504 -624 -458 -916 -362 -2053 243 -2857 135 -179 319 -234 498 -149 244 115 307 390 140 615 -490 664 -511 1585 -51 2262 41 60 89 131 107 157 165 245 -15 595 -311 606 -50 2 -98 -2 -122 -10z"/>
    <path d="M7123 7055 c-166 -51 -277 -200 -278 -370 0 -116 19 -171 100 -283 283 -394 404 -783 392 -1257 -10 -393 -131 -758 -352 -1064 -94 -132 -117 -189 -117 -296 0 -291 306 -484 565 -357 80 39 130 93 236 252 484 724 593 1634 295 2467 -123 343 -375 761 -518 857 -91 62 -223 83 -323 51z"/>
    <path d="M4930 6816 c-485 -75 -899 -426 -1033 -876 -44 -147 -51 -199 -51 -365 -1 -343 104 -606 342 -857 l54 -57 -107 -463 c-58 -255 -130 -566 -159 -693 -131 -565 -139 -604 -133 -662 12 -117 94 -222 204 -263 54 -20 67 -20 1091 -18 l1037 3 50 27 c106 56 165 144 172 257 5 68 -4 111 -197 941 -27 118 -81 350 -119 515 -38 165 -72 312 -76 326 -6 23 3 37 65 105 615 674 328 1739 -545 2028 -174 57 -422 79 -595 52z"/>
  </g>
</svg>
